<svg aria-hidden="true" style="position: absolute; width: 0; height: 0; overflow: hidden;" version="1.1" xmlns="http://www.w3.org/2000/svg" xmlns:xlink="http://www.w3.org/1999/xlink">
<defs>
<symbol id="icon-medgrupo" viewBox="0 0 32 32">
<path d="M23.5 3.333v-1.5h-3v1.5h3zM20.5 10v1.5h3v-1.5h-3zM20.5 3.333v6.667h3v-6.667h-3z"></path>
<path d="M19.5 3.333v-1.5h-3v1.5h3zM16.5 10v1.5h3v-1.5h-3zM16.5 3.333v6.667h3v-6.667h-3z"></path>
<path d="M11.5 3.333v-1.5h-3v1.5h3zM8.5 10v1.5h3v-1.5h-3zM8.5 3.333v6.667h3v-6.667h-3z"></path>
<path d="M15.5 3.333v-1.5h-3v1.5h3zM12.5 10v1.5h3v-1.5h-3zM12.5 3.333v6.667h3v-6.667h-3z"></path>
<path d="M23.5 22v-1.5h-3v1.5h3zM20.5 28.667v1.5h3v-1.5h-3zM20.5 22v6.667h3v-6.667h-3z"></path>
<path d="M11.5 22v-1.5h-3v1.5h3zM8.5 28.667v1.5h3v-1.5h-3zM8.5 22v6.667h3v-6.667h-3z"></path>
<path d="M15.5 22v-1.5h-3v1.5h3zM12.5 28.667v1.5h3v-1.5h-3zM12.5 22v6.667h3v-6.667h-3z"></path>
<path d="M19.5 22v-1.5h-3v1.5h3zM16.5 28.667v1.5h3v-1.5h-3zM16.5 22v6.667h3v-6.667h-3z"></path>
<path d="M28.667 11.5h1.5v-3h-1.5v3zM22 8.5h-1.5v3h1.5v-3zM28.667 8.5h-6.667v3h6.667v-3z"></path>
<path d="M10 11.5h1.5v-3h-1.5v3zM3.333 8.5h-1.5v3h1.5v-3zM10 8.5h-6.667v3h6.667v-3z"></path>
<path d="M28.667 23.5h1.5v-3h-1.5v3zM22 20.5h-1.5v3h1.5v-3zM28.667 20.5h-6.667v3h6.667v-3z"></path>
<path d="M10 23.5h1.5v-3h-1.5v3zM3.333 20.5h-1.5v3h1.5v-3zM10 20.5h-6.667v3h6.667v-3z"></path>
<path d="M28.667 15.5h1.5v-3h-1.5v3zM22 12.5h-1.5v3h1.5v-3zM28.667 12.5h-6.667v3h6.667v-3z"></path>
<path d="M10 15.5h1.5v-3h-1.5v3zM3.333 12.5h-1.5v3h1.5v-3zM10 12.5h-6.667v3h6.667v-3z"></path>
<path d="M28.667 19.5h1.5v-3h-1.5v3zM22 16.5h-1.5v3h1.5v-3zM28.667 16.5h-6.667v3h6.667v-3z"></path>
<path d="M10 19.5h1.5v-3h-1.5v3zM3.333 16.5h-1.5v3h1.5v-3zM10 16.5h-6.667v3h6.667v-3z"></path>
<path d="M14 12.5h-1.5v3h1.5v-3zM14.013 15.5h1.5v-3h-1.5v3zM14 15.5h0.013v-3h-0.013v3z"></path>
<path d="M18 12.5h-1.5v3h1.5v-3zM18.013 15.5h1.5v-3h-1.5v3zM18 15.5h0.013v-3h-0.013v3z"></path>
<path d="M18 16.5h-1.5v3h1.5v-3zM18.013 19.5h1.5v-3h-1.5v3zM18 19.5h0.013v-3h-0.013v3z"></path>
<path d="M14 16.5h-1.5v3h1.5v-3zM14.013 19.5h1.5v-3h-1.5v3zM14 19.5h0.013v-3h-0.013v3z"></path>
</symbol>
</defs>
</svg>
